# xmcd CD database file
#
# Track frame offsets:
#	150
#	14809
#	27420
#	46654
#	59503
#	82329
#	104763
#	127944
#	147346
#	159226
#	172064
#	186216
#	206795
#	224048
#	245484
#	271031
#	283609
#	297395
#	311222
#	338944
#	350301
#
# Disc length: 4798 seconds
#
# Revision: 1
# Processed by: cddbd v1.5.2PL0 Copyright (c) Steve Scherf et al.
# Submitted via: CDex 1.70beta2
#
DISCID=5812bc15
DTITLE=Nina Simone - FREE SOUL: the classic of NINA SIMONE - SICP-2554
DYEAR=2010
DGENRE=Classical
TTITLE0=O-o-h Child
TTITLE1=Tomorrow Is My Turn
TTITLE2=My Baby Just Cares for Me
TTITLE3=Ain't Got No - I Got Life
TTITLE4=Funkier Than a Mosquito's Tweeter
TTITLE5=Mr. Bonjangles
TTITLE6=My Way
TTITLE7=Suzanne
TTITLE8=To Love Somebody
TTITLE9=To Be Young, Gifted and Black
TTITLE10=Rich Girl
TTITLE11=Baltimore
TTITLE12=Tell It Like It Is
TTITLE13=Just Like Tom Thumb's Blues
TTITLE14=Why? (The King of Love Is Dead)
TTITLE15=Go to Hell
TTITLE16=Work Song
TTITLE17=Everyone's Gone to the Moon
TTITLE18=Just in Time
TTITLE19=I Want a Little Sugar in My Bowl
TTITLE20=The Human Touch
EXTD=YEAR: 2010
EXTT0=
EXTT1=
EXTT2=
EXTT3=
EXTT4=
EXTT5=
EXTT6=
EXTT7=
EXTT8=
EXTT9=
EXTT10=
EXTT11=
EXTT12=
EXTT13=
EXTT14=
EXTT15=
EXTT16=
EXTT17=
EXTT18=
EXTT19=
EXTT20=
PLAYORDER=
